<?xml version="1.0" standalone="no"?><!DOCTYPE svg PUBLIC "-//W3C//DTD SVG 1.1//EN" "http://www.w3.org/Graphics/SVG/1.1/DTD/svg11.dtd"><svg t="1493038648634" class="icon" style="" viewBox="0 0 1024 1024" version="1.1" xmlns="http://www.w3.org/2000/svg" p-id="4988" xmlns:xlink="http://www.w3.org/1999/xlink" width="32" height="32"><defs><style type="text/css"></style></defs><path d="M969.962057 934.560914c-29.871543-188.737829-124.635429-295.058286-231.862857-360.740571 67.759543-60.123429 82.212571-145.8176 82.212571-237.860571 0-173.845943-114.044343-290.903771-290.230857-290.903771S230.136686 162.113829 230.136686 335.930514c0 93.652114 21.972114 181.013943 94.646857 241.2544-130.486857 69.544229-228.790857 208.047543-238.592 354.538057l-0.4096 6.114743c0 0.117029-0.029257 0.263314-0.029257 0.380343L85.723429 938.744686l0.029257 0c0 0.292571-0.029257 0.585143-0.029257 0.906971 0 16.384 24.9856 52.896914 41.398857 52.896914 1.784686 0 3.510857-0.175543 5.207771-0.468114 1.550629 0.321829 3.159771 0.468114 4.798171 0.468114l784.003657 0c0.6144 0 1.2288-0.058514 1.813943-0.087771 1.375086 0.175543 2.779429 0.292571 4.213029 0.292571 18.695314 0 41.5744-32.738743 42.569143-51.141486l0.702171 0L969.962057 934.560914zM291.313371 335.901257c0-138.825143 98.011429-233.237943 238.767543-233.237943 140.785371 0 232.067657 94.4128 232.067657 233.237943 0 138.8544-91.282286 252.752457-232.067657 252.752457C389.3248 588.653714 291.313371 474.755657 291.313371 335.901257zM142.804114 937.340343c18.139429-129.521371 121.124571-274.373486 240.405943-321.828571 37.6832 17.495771 95.232 29.0816 146.870857 29.0816 47.835429 0 94.266514-3.920457 138.474057-24.897829l11.293257-6.5536c82.622171 41.896229 216.707657 163.313371 227.825371 324.1984L142.804114 937.340343z" p-id="4989" fill="#515151"></path></svg>