<?xml version="1.0" standalone="no"?><!DOCTYPE svg PUBLIC "-//W3C//DTD SVG 1.1//EN" "http://www.w3.org/Graphics/SVG/1.1/DTD/svg11.dtd"><svg t="1493038614184" class="icon" style="" viewBox="0 0 1024 1024" version="1.1" xmlns="http://www.w3.org/2000/svg" p-id="3203" xmlns:xlink="http://www.w3.org/1999/xlink" width="32" height="32"><defs><style type="text/css"></style></defs><path d="M359.433216 599.268352c-25.419776 2.654208-43.625472 24.81664-43.625472 46.004224 0 21.238784 20.466688 35.909632 45.899776 32.937984 25.32864-2.890752 45.886464-22.477824 45.886464-43.638784C407.593984 613.306368 388.61312 596.482048 359.433216 599.268352z" p-id="3204" fill="#d81e06"></path><path d="M423.945216 581.76c-8.713216 6.309888-10.50112 18.402304-5.757952 25.920512 4.549632 7.67488 15.141888 8.568832 23.740416 2.156544 8.41216-6.62528 11.685888-18.192384 7.122944-25.920512C444.50304 576.398336 434.039808 574.215168 423.945216 581.76z" p-id="3205" fill="#d81e06"></path><path d="M512.37888 6.260736c-279.390208 0-506.336256 226.655232-506.336256 506.228736 0 279.471104 226.946048 505.94304 506.336256 505.94304 279.600128 0 506.228736-226.47296 506.228736-505.94304C1018.60864 232.916992 791.979008 6.260736 512.37888 6.260736zM789.088256 639.410176c-55.79776 118.53312-239.80032 176.208896-376.131584 165.535744-129.599488-10.200064-296.214528-53.23264-313.435136-210.040832 0 0-9.09312-71.030784 59.754496-162.935808 0 0 99.026944-138.326016 214.40512-177.78688 115.444736-39.299072 128.89088 27.209728 128.89088 66.484224-6.124544 33.334272-17.599488 52.917248 25.737216 39.457792 0 0 113.471488-52.629504 160.17408-5.941248 37.670912 37.72416 6.21568 89.53856 6.21568 89.53856s-15.629312 17.321984 16.523264 23.578624C743.476224 473.715712 844.896256 520.691712 789.088256 639.410176zM677.190656 311.940096c-12.355584 0-22.25152-9.990144-22.25152-22.240256 0-12.461056 9.895936-22.450176 22.25152-22.450176 0 0 139.104256-25.737216 122.489856 123.76576 0 0.893952-0.104448 1.574912-0.287744 2.363392-1.591296 10.568704-10.883072 18.692096-21.871616 18.692096-12.383232 0-22.450176-9.911296-22.450176-22.267904C755.070976 389.803008 777.124864 289.90976 677.190656 311.940096zM912.166912 416.197632c-3.652608 53.837824-16.24576 34.989056-31.177728 34.989056-17.887232 0-32.3328-9.018368-32.3328-26.918912 0-15.535104 6.412288-28.548096 6.412288-28.548096 1.892352-6.546432 17.03424-45.743104-9.98912-106.389504-49.447936-83.096576-149.078016-83.620864-160.85504-78.864384-11.884544 4.627456-29.389824 7.36256-29.389824 7.36256-18.009088 0-32.44032-14.380032-32.44032-32.1792 0-14.928896 9.990144-27.312128 23.631872-31.177728 0 0 0.315392-0.0512 0.802816-0.155648 0.985088-0.20992 1.983488-0.36864 3.07712-0.474112 13.83936-2.680832 63.286272-21.607424 111.393792-10.358784 86.068224 20.084736 204.208128 111.200256 151.053312 272.713728L912.166912 416.196608z" p-id="3206" fill="#d81e06"></path><path d="M423.051264 439.697408c-135.35744 6.204416-244.75648 78.708736-244.75648 169.140224 0 90.323968 109.39904 158.200832 244.75648 151.890944 135.437312-6.151168 245.057536-90.9568 245.057536-181.256192C668.1088 489.22624 558.488576 433.441792 423.051264 439.697408zM515.243008 667.117568c-41.442304 53.523456-123.461632 79.62624-203.101184 36.512768-37.880832-20.5824-36.51584-60.934144-36.51584-60.934144s-15.7184-127.550464 120.400896-143.454208C532.358144 483.390464 556.698624 613.595136 515.243008 667.117568z" p-id="3207" fill="#d81e06"></path></svg>