<?xml version="1.0" standalone="no"?><!DOCTYPE svg PUBLIC "-//W3C//DTD SVG 1.1//EN" "http://www.w3.org/Graphics/SVG/1.1/DTD/svg11.dtd"><svg t="1493038636913" class="icon" style="" viewBox="0 0 1024 1024" version="1.1" xmlns="http://www.w3.org/2000/svg" p-id="4270" xmlns:xlink="http://www.w3.org/1999/xlink" width="32" height="32"><defs><style type="text/css"></style></defs><path d="M732.808533 541.568c-74.5728 1.6896-77.738667-50.397867-77.738666-87.7056 0-39.108267 8.021333-94.404267 68.096-94.404267 59.9296 0 76.091733 58.589867 76.091733 78.045867 0 19.566933 8.149333 102.4-66.449067 104.064z m11.392 200.021333c-37.256533 87.808-173.448533 42.197333-173.448533 42.197334S520.533333 767.658667 462.276267 780.578133c-58.274133 13.038933-108.501333 8.081067-108.501334 8.081067s-68.1728 1.664-87.6032-84.462933c-19.4048-86.212267 68.027733-133.4272 74.5728-141.457067 6.459733-8.1664 51.84-39.022933 80.9472-87.790933 29.243733-48.768 116.701867-87.808 178.269867 8.081066 45.380267 65.041067 123.195733 125.269333 123.195733 125.269334s58.248533 45.525333 21.0432 133.290666zM225.757867 398.506667s8.0384-79.650133 63.172266-84.573867c43.8016-3.754667 76.014933 44.16 79.36 71.569067 2.082133 17.792 11.349333 99.191467-56.763733 113.834666-67.950933 14.609067-93.243733-64.008533-85.768533-100.829866zM437.930667 169.2672c37.614933 0 68.036267 43.298133 68.036266 96.7424 0 53.5296-30.421333 96.8192-68.036266 96.8192-37.546667 0-68.027733-43.2896-68.027734-96.8192 0-53.444267 30.472533-96.7424 68.027734-96.7424zM543.232 271.7184c4.087467-37.2224 48.5888-94.344533 84.3008-86.186667 35.566933 8.1152 68.027733 55.296 61.457067 95.906134-6.434133 40.6528-38.7584 94.318933-89.019734 87.765333-50.2016-6.4256-61.568-51.925333-56.746666-97.4848zM512.017067 0C229.239467 0 0 229.2736 0 512.017067 0 794.786133 229.239467 1024 512.017067 1024 794.786133 1024 1024 794.786133 1024 512.017067 1024 229.2736 794.786133 0 512.017067 0z m-58.0864 702.634667h-40.251734s-24.8064-0.674133-32.4352-29.243734c-3.84-12.765867 0.597333-24.9344 2.5856-30.6688 1.877333-5.742933 10.171733-21.777067 27.306667-21.777066h42.794667v81.698133z m0-108.928h-51.0464s-47.121067-1.851733-63.6416 51.592533c-5.717333 35.677867 5.0944 49.262933 6.980266 53.777067 1.937067 4.488533 17.169067 30.805333 55.381334 30.805333h79.581866v-204.885333l-27.255466-0.597334v69.307734z m163.421866 108.936533H569.088s-6.186667-3.8144-6.186667-14.6176v-101.290667l-54.485333 0.7168v112.657067s5.256533 29.7728 44.7232 29.7728h91.4432V593.706667h-27.221333v108.936533z" p-id="4271" fill="#0c4fa2"></path></svg>