<?xml version="1.0" standalone="no"?><!DOCTYPE svg PUBLIC "-//W3C//DTD SVG 1.1//EN" "http://www.w3.org/Graphics/SVG/1.1/DTD/svg11.dtd"><svg t="1494252934747" class="icon" style="" viewBox="0 0 1025 1024" version="1.1" xmlns="http://www.w3.org/2000/svg" p-id="998" xmlns:xlink="http://www.w3.org/1999/xlink" width="64.0625" height="64"><defs><style type="text/css"></style></defs><path d="M59.403202 779.194096 59.403202 207.360845l28.57272 28.490806c99.520714 99.193056 332.024118 330.882438 341.664403 340.225784 5.211795 4.187867 11.508954 6.399552 18.190087 6.399552 9.031048 0 17.171278-3.988201 23.499155-11.467997l364.897337-365.655044 0.378853 357.166678c6.220365-0.547802 12.527763-0.8601 18.947794-0.8601 13.838391 0 27.205776 1.310628 40.086794 3.86021L895.640345 192.71867c0-41.617567-22.920636-64.543322-64.533083-64.543322L64.538202 128.175348C22.920636 128.170228 0 151.095983 0 192.71867l0 580.746548c0 41.607327 22.920636 64.543322 64.533083 64.543322l613.205076 0c-8.698271-18.410231-14.340116-38.14645-16.669553-59.275211L59.403202 779.194096zM771.069225 187.57855 448.367974 511.682582l-0.28158 0.271341L123.71614 187.57855 771.069225 187.57855z" p-id="999" fill="#1afa29"></path><path d="M965.241873 647.491316c-29.898707-29.806554-67.00587-45.175718-109.703681-45.175718-42.769486 0-79.876649 15.369164-109.703681 45.175718-29.806554 29.827032-45.165478 65.377824-45.165478 108.060276 0 42.728529 15.358925 79.016549 45.165478 108.843581 29.827032 29.85775 66.934195 45.124521 109.703681 45.124521 42.738768 0 79.804974-15.266771 109.703681-45.124521 29.806554-29.827032 45.098923-66.084334 45.098923-108.843581C1010.340796 712.838421 995.053546 677.318348 965.241873 647.491316zM959.625626 714.988671l-112.954653 111.362445c-8.867219 7.259652-20.939334 7.259652-29.827032 0l-65.326627-64.497245c-20.161149-16.99721 9.691482-47.617787 29.059086-28.250182l50.827802 49.988181 99.152099-96.781705c7.321088-9.71708 21.046847-8.058316 29.069325 0C968.533803 694.095413 968.533803 707.764856 959.625626 714.988671z" p-id="1000" fill="#1afa29"></path></svg>